<?xml version="1.0" ?><!DOCTYPE svg  PUBLIC '-//W3C//DTD SVG 1.1//EN'  'http://www.w3.org/Graphics/SVG/1.1/DTD/svg11.dtd'><svg height="512px" style="enable-background:new 0 0 512 512;" version="1.1" viewBox="0 0 512 512" width="512px" xml:space="preserve" xmlns="http://www.w3.org/2000/svg" xmlns:xlink="http://www.w3.org/1999/xlink"><g id="comp_x5F_147-gmail"><g><polygon points="397.89,83.035 114.106,83.035 256.003,195.386   "/><polygon points="102.498,197.958 102.498,428.965 409.496,428.965 409.496,197.934 256.005,316.344   "/><path d="M442.871,83.035h-14.375L256.003,219.621L83.498,83.035H69.125c-23.803,0-43.124,19.37-43.124,43.241v259.446    c0,23.867,19.321,43.24,43.124,43.24h14.373V159.312L256.003,292.35l172.493-133.07v269.684h14.375    c23.806,0,43.128-19.373,43.128-43.24V126.276C485.999,102.406,466.68,83.035,442.871,83.035z"/></g></g><g id="Layer_1"/></svg>